<svg fill="none" height="167" viewBox="0 0 226 167" width="226" xmlns="http://www.w3.org/2000/svg" xmlns:xlink="http://www.w3.org/1999/xlink"><filter id="a" color-interpolation-filters="sRGB" filterUnits="userSpaceOnUse" height="167" width="225.208" x="0" y="0"><feFlood flood-opacity="0" result="BackgroundImageFix"/><feColorMatrix in="SourceAlpha" result="hardAlpha" type="matrix" values="0 0 0 0 0 0 0 0 0 0 0 0 0 0 0 0 0 0 127 0"/><feOffset/><feGaussianBlur stdDeviation="10"/><feComposite in2="hardAlpha" operator="out"/><feColorMatrix type="matrix" values="0 0 0 0 0 0 0 0 0 0 0 0 0 0 0 0 0 0 0.07 0"/><feBlend in2="BackgroundImageFix" mode="normal" result="effect1_dropShadow_353_4628"/><feBlend in="SourceGraphic" in2="effect1_dropShadow_353_4628" mode="normal" result="shape"/></filter><g filter="url(#a)"><rect fill="#fff" height="124.354" rx="14.5521" stroke="#d9d9d9" stroke-width="2.64583" width="182.562" x="21.3229" y="21.3229"/><path clip-rule="evenodd" d="m107.472 103.386v-15.9855h8.251c3.381 0 6.234-1.1329 8.56-3.3671l.559-.5664c4.249-4.6259 3.97-11.8321-.559-16.1118-2.264-2.2657-5.366-3.493-8.56-3.43h-13.245v39.4608zm.001-20.8316v-13.7831h8.376c1.799 0 3.505.6923 4.777 1.9511 2.699 2.6433 2.761 7.0489.155 9.7866-1.272 1.3531-3.071 2.1084-4.932 2.0454zm40.663-4.0595c-2.14-1.9825-5.056-2.9895-8.747-2.9895-4.746 0-8.313 1.7622-10.67 5.2552l4.404 2.8007c1.613-2.3916 3.816-3.5874 6.607-3.5874 1.768 0 3.474.6608 4.808 1.8566 1.303 1.1329 2.047 2.7692 2.047 4.5v1.1643c-1.923-1.0699-4.342-1.6363-7.32-1.6363-3.474 0-6.266.8181-8.344 2.486-2.078 1.6678-3.133 3.8706-3.133 6.6712-.062 2.549 1.024 4.972 2.947 6.6083 1.954 1.762 4.436 2.643 7.351 2.643 3.443 0 6.173-1.542 8.251-4.6254h.217v3.7444h4.777v-16.6464c0-3.493-1.055-6.2622-3.195-8.2447zm-13.554 19.9196c-1.024-.7553-1.644-1.9825-1.644-3.3042 0-1.479.682-2.7063 2.016-3.6818 1.365-.9755 3.072-1.479 5.088-1.479 2.792-.0315 4.964.5979 6.515 1.8566 0 2.1399-.838 3.9965-2.482 5.5699-1.489 1.5105-3.506 2.3601-5.615 2.3601-1.396.0315-2.761-.4405-3.878-1.3216zm27.481 16.8355 16.687-38.8635h-5.428l-7.723 19.3844h-.093l-7.91-19.3844h-5.428l10.949 25.2695-6.203 13.594z" fill="#3c4043" fill-rule="evenodd"/><path d="m90.2316 83.9389c0-1.542-.1241-3.0839-.3722-4.5944h-21.0608v8.7167h12.0658c-.4963 2.8007-2.1092 5.3181-4.4666 6.8915v5.6643h7.1961c4.2184-3.9335 6.6377-9.7551 6.6377-16.6781z" fill="#4285f4"/><path d="m68.7995 106.093c6.0174 0 11.1043-2.014 14.7953-5.476l-7.196-5.6642c-2.0161 1.3846-4.5906 2.1714-7.5993 2.1714-5.8312 0-10.763-3.9965-12.531-9.3461h-7.4132v5.8531c3.7842 7.6468 11.5075 12.4618 19.9442 12.4618z" fill="#34a853"/><path d="m56.2692 87.7781c-.9307-2.8007-.9307-5.8531 0-8.6852v-5.8217h-7.4143c-3.1954 6.3881-3.1954 13.9405 0 20.3285z" fill="#fbbc04"/><path d="m68.7995 69.7469c3.1948-.0629 6.2656 1.1644 8.5608 3.3986l6.3896-6.4825c-4.0633-3.8391-9.3982-5.9475-14.9504-5.8845-8.4367 0-16.16 4.8461-19.9442 12.4929l7.4132 5.8531c1.768-5.3811 6.6998-9.3776 12.531-9.3776z" fill="#ea4335"/></g></svg>