<svg fill="none" height="167" viewBox="0 0 226 167" width="226" xmlns="http://www.w3.org/2000/svg" xmlns:xlink="http://www.w3.org/1999/xlink"><filter id="a" color-interpolation-filters="sRGB" filterUnits="userSpaceOnUse" height="167" width="225.208" x="0" y="0"><feFlood flood-opacity="0" result="BackgroundImageFix"/><feColorMatrix in="SourceAlpha" result="hardAlpha" type="matrix" values="0 0 0 0 0 0 0 0 0 0 0 0 0 0 0 0 0 0 127 0"/><feOffset/><feGaussianBlur stdDeviation="10"/><feComposite in2="hardAlpha" operator="out"/><feColorMatrix type="matrix" values="0 0 0 0 0 0 0 0 0 0 0 0 0 0 0 0 0 0 0.07 0"/><feBlend in2="BackgroundImageFix" mode="normal" result="effect1_dropShadow_353_4479"/><feBlend in="SourceGraphic" in2="effect1_dropShadow_353_4479" mode="normal" result="shape"/></filter><g filter="url(#a)"><rect fill="#fff" height="124.354" rx="14.5521" stroke="#d9d9d9" stroke-width="2.64583" width="182.562" x="21.3229" y="21.3229"/><g clip-rule="evenodd" fill-rule="evenodd"><path d="m113.927 110.789c-6.305 5.441-14.4845 8.726-23.4221 8.726-19.9425 0-36.1091-16.354-36.1091-36.5285 0-20.174 16.1666-36.5282 36.1091-36.5282 8.9376 0 17.1171 3.2848 23.4221 8.7261 6.305-5.4413 14.485-8.7261 23.422-8.7261 19.943 0 36.109 16.3543 36.109 36.5283 0 20.1744-16.166 36.5284-36.109 36.5284-8.937 0-17.117-3.285-23.422-8.726z" fill="#ed0006"/><path d="m113.927 110.789c7.764-6.7 12.687-16.6697 12.687-27.8025 0-11.1327-4.923-21.1022-12.687-27.8022 6.305-5.4413 14.485-8.726 23.422-8.726 19.943 0 36.109 16.3542 36.109 36.5282 0 20.1745-16.166 36.5285-36.109 36.5285-8.937 0-17.117-3.285-23.422-8.726z" fill="#f9a000"/><path d="m113.927 110.789c7.764-6.7 12.687-16.6697 12.687-27.8024 0-11.1326-4.923-21.1021-12.687-27.802-7.764 6.6999-12.687 16.6694-12.687 27.802 0 11.1327 4.923 21.1024 12.687 27.8024z" fill="#ff5e00"/></g></g></svg>