<svg fill="none" height="167" viewBox="0 0 226 167" width="226" xmlns="http://www.w3.org/2000/svg" xmlns:xlink="http://www.w3.org/1999/xlink"><filter id="a" color-interpolation-filters="sRGB" filterUnits="userSpaceOnUse" height="167" width="225.208" x="0" y="0"><feFlood flood-opacity="0" result="BackgroundImageFix"/><feColorMatrix in="SourceAlpha" result="hardAlpha" type="matrix" values="0 0 0 0 0 0 0 0 0 0 0 0 0 0 0 0 0 0 127 0"/><feOffset/><feGaussianBlur stdDeviation="10"/><feComposite in2="hardAlpha" operator="out"/><feColorMatrix type="matrix" values="0 0 0 0 0 0 0 0 0 0 0 0 0 0 0 0 0 0 0.07 0"/><feBlend in2="BackgroundImageFix" mode="normal" result="effect1_dropShadow_353_4587"/><feBlend in="SourceGraphic" in2="effect1_dropShadow_353_4587" mode="normal" result="shape"/></filter><g filter="url(#a)"><rect fill="#fff" height="124.354" rx="14.5521" stroke="#d9d9d9" stroke-width="2.64583" width="182.562" x="21.3229" y="21.3229"/><path clip-rule="evenodd" d="m72.3875 100.65h-8.2318c-.5633 0-1.0424.409-1.1302.965l-3.3294 21.109c-.0661.417.2564.792.6789.792h3.93c.5633 0 1.0424-.409 1.1302-.966l.898-5.694c.0866-.557.5669-.966 1.129-.966h2.6059c5.4226 0 8.5519-2.624 9.3696-7.824.3682-2.275.0156-4.062-1.05-5.314-1.1697-1.375-3.2452-2.102-6.0002-2.102zm.9497 7.71c-.45 2.953-2.7069 2.953-4.8892 2.953h-1.2422l.8715-5.516c.0517-.333.3406-.579.6776-.579h.5694c1.4865 0 2.8889 0 3.6136.847.4317.506.5642 1.257.3993 2.295zm23.6572-.095h-3.942c-.3359 0-.6261.246-.6779.579l-.1744 1.103-.2757-.4c-.8533-1.239-2.7561-1.653-4.6555-1.653-4.3565 0-8.0768 3.3-8.8015 7.928-.3765 2.308.1587 4.516 1.4683 6.055 1.2015 1.416 2.9204 2.006 4.9653 2.006 3.5097 0 5.4565-2.257 5.4565-2.257l-.176 1.095c-.0663.419.2562.795.6762.795h3.551c.5648 0 1.0411-.41 1.1302-.967l2.1306-13.492c.0674-.415-.254-.792-.6751-.792zm-5.495 7.672c-.3804 2.252-2.1679 3.764-4.4472 3.764-1.1447 0-2.0599-.367-2.647-1.063-.5826-.69-.8043-1.674-.6188-2.769.3553-2.233 2.1729-3.794 4.4177-3.794 1.119 0 2.0292.371 2.6286 1.073.6004.709.8388 1.699.6667 2.789zm22.5276-7.673h3.962c.555 0 .878.623.563 1.078l-13.175 19.017c-.213.308-.565.492-.94.492h-3.957c-.5568 0-.8821-.628-.5596-1.084l4.1026-5.791-4.3633-12.804c-.1509-.445.1777-.908.6513-.908h3.892c.506 0 .952.332 1.098.816l2.316 7.734 5.464-8.048c.213-.314.569-.502.946-.502z" fill="#253b80" fill-rule="evenodd"/><path clip-rule="evenodd" d="m156.977 122.724 3.379-21.495c.051-.334.34-.579.676-.58h3.804c.42 0 .742.376.676.793l-3.332 21.108c-.087.557-.566.966-1.13.966h-3.397c-.42 0-.742-.375-.676-.792zm-25.873-22.074h-8.233c-.562 0-1.041.409-1.129.965l-3.329 21.109c-.067.417.256.792.676.792h4.225c.392 0 .728-.286.79-.676l.944-5.984c.087-.557.567-.966 1.129-.966h2.605c5.424 0 8.552-2.624 9.371-7.824.369-2.275.014-4.062-1.051-5.315-1.169-1.374-3.243-2.101-5.998-2.101zm.95 7.709c-.449 2.954-2.706 2.954-4.89 2.954h-1.241l.873-5.516c.052-.333.338-.579.676-.579h.57c1.485 0 2.889 0 3.613.847.432.506.564 1.257.399 2.294zm23.655-.094h-3.939c-.339 0-.626.245-.677.579l-.175 1.102-.276-.399c-.854-1.239-2.755-1.653-4.655-1.653-4.356 0-8.075 3.3-8.8 7.928-.376 2.308.157 4.516 1.467 6.055 1.204 1.416 2.92 2.005 4.965 2.005 3.51 0 5.456-2.257 5.456-2.257l-.175 1.096c-.066.419.256.794.679.794h3.549c.562 0 1.041-.409 1.129-.966l2.132-13.492c.065-.415-.257-.792-.68-.792zm-5.495 7.672c-.378 2.252-2.168 3.764-4.447 3.764-1.143 0-2.06-.367-2.647-1.063-.583-.691-.802-1.674-.619-2.769.357-2.233 2.173-3.794 4.418-3.794 1.119 0 2.029.371 2.629 1.073.602.709.841 1.699.666 2.789z" fill="#179bd7" fill-rule="evenodd"/><path d="m102.852 93.0986 1.012-6.428-2.254-.0524h-10.7648l7.4807-47.4336c.0229-.1432.0986-.2767.2089-.3715s.2518-.1471.3988-.1471h18.1504c6.026 0 10.184 1.2539 12.355 3.7288 1.018 1.1611 1.666 2.3743 1.98 3.7095.329 1.401.335 3.0748.013 5.1162l-.023.1491v1.308l1.018.5767c.857.4547 1.538.9752 2.061 1.5712.871.9927 1.434 2.2543 1.672 3.7501.245 1.5384.164 3.3689-.238 5.4413-.465 2.384-1.216 4.4603-2.229 6.1593-.933 1.5654-2.121 2.8636-3.532 3.8701-1.347.9558-2.947 1.6816-4.756 2.1462-1.754.4562-3.752.6868-5.945.6868h-1.412c-1.01 0-1.992.3637-2.761 1.016-.772.6656-1.284 1.5747-1.44 2.5695l-.107.5788-1.788 11.3292-.081.4161c-.021.132-.058.1977-.112.2423-.048.0401-.118.0674-.186.0674z" fill="#253b80"/><path d="m133.391 51.5212c-.054.3464-.116.7005-.186 1.0643-2.394 12.2894-10.582 16.5349-21.042 16.5349h-5.325c-1.279 0-2.356.9288-2.556 2.1904l-2.726 17.2917-.772 4.9012c-.13.8283.509 1.5753 1.344 1.5753h9.446c1.118 0 2.068-.8127 2.244-1.9156l.093-.4801 1.778-11.2852.115-.6189c.173-1.1068 1.125-1.9195 2.244-1.9195h1.412c9.151 0 16.315-3.7153 18.409-14.4666.874-4.4912.421-8.2413-1.893-10.8788-.7-.7953-1.569-1.4551-2.585-1.9931z" fill="#179bd7"/><path d="m130.886 50.5232c-.366-.1064-.743-.2032-1.13-.2903-.389-.0851-.788-.1605-1.198-.2263-1.436-.2322-3.009-.3425-4.694-.3425h-14.227c-.35 0-.683.0793-.981.2225-.656.3154-1.143.9366-1.261 1.697l-3.027 19.1685-.087.5592c.199-1.2616 1.277-2.1905 2.556-2.1905h5.325c10.459 0 18.649-4.2473 21.042-16.5348.072-.3638.132-.7179.186-1.0643-.606-.3212-1.262-.596-1.968-.8302-.174-.058-.354-.1141-.536-.1683z" fill="#222d65"/><path d="m107.395 51.5834c.118-.7605.606-1.3816 1.262-1.6951.3-.1432.631-.2225.98-.2225h14.227c1.686 0 3.259.1102 4.694.3425.411.0658.81.1412 1.198.2263.388.0872.765.1839 1.131.2903.181.0542.361.1103.537.1664.706.2342 1.363.5109 1.968.8302.713-4.5416-.005-7.6338-2.461-10.4338-2.707-3.0825-7.593-4.4022-13.845-4.4022h-18.1511c-1.2772 0-2.3662.9288-2.564 2.1924l-7.5598 47.9212c-.1493.9481.5821 1.8037 1.5379 1.8037h11.206l2.814-17.8509z" fill="#253b80"/></g></svg>