<svg fill="none" height="167" viewBox="0 0 226 167" width="226" xmlns="http://www.w3.org/2000/svg" xmlns:xlink="http://www.w3.org/1999/xlink"><filter id="a" color-interpolation-filters="sRGB" filterUnits="userSpaceOnUse" height="167" width="225.208" x="0" y="0"><feFlood flood-opacity="0" result="BackgroundImageFix"/><feColorMatrix in="SourceAlpha" result="hardAlpha" type="matrix" values="0 0 0 0 0 0 0 0 0 0 0 0 0 0 0 0 0 0 127 0"/><feOffset/><feGaussianBlur stdDeviation="10"/><feComposite in2="hardAlpha" operator="out"/><feColorMatrix type="matrix" values="0 0 0 0 0 0 0 0 0 0 0 0 0 0 0 0 0 0 0.07 0"/><feBlend in2="BackgroundImageFix" mode="normal" result="effect1_dropShadow_353_4566"/><feBlend in="SourceGraphic" in2="effect1_dropShadow_353_4566" mode="normal" result="shape"/></filter><g filter="url(#a)"><rect fill="#fff" height="124.354" rx="14.5521" stroke="#d9d9d9" stroke-width="2.64583" width="182.562" x="21.3229" y="21.3229"/><path clip-rule="evenodd" d="m76.2253 106.033h-11.22l-8.4137-32.0981c-.3993-1.4765-1.2472-2.7819-2.4945-3.3971-3.1127-1.5461-6.5428-2.7765-10.2846-3.3971v-1.2358h18.0746c2.4945 0 4.3655 1.8564 4.6773 4.0123l4.3655 23.1538 11.2145-27.1661h10.9082zm23.0638 0h-10.5964l8.7255-40.1281h10.5968zm22.4349-29.0114c.311-2.1613 2.182-3.3971 4.365-3.3971 3.43-.3103 7.167.3103 10.285 1.851l1.871-8.6399c-3.119-1.2358-6.549-1.8564-9.661-1.8564-10.285 0-17.769 5.5585-17.769 13.2728 0 5.8687 5.301 8.9502 9.043 10.8065 4.048 1.851 5.608 3.0868 5.296 4.9379 0 2.7765-3.119 4.0123-6.231 4.0123-3.742 0-7.484-.9255-10.908-2.4716l-1.871 8.6449c3.741 1.541 7.79 2.162 11.531 2.162 11.532.305 18.699-5.249 18.699-13.5834 0-10.4963-14.65-11.1115-14.65-15.739zm51.734 29.0114-8.413-40.1281h-9.038c-1.871 0-3.741 1.2358-4.365 3.0868l-15.58 37.0413h10.908l2.177-5.863h13.403l1.247 5.863zm-15.892-29.3219 3.113 15.1238h-8.725z" fill="#172b85" fill-rule="evenodd"/></g></svg>