<svg height="512" width="512" xmlns="http://www.w3.org/2000/svg"><path d="m-1-1h802v602h-802z" fill="none"/><g><path d="m224.11328 303.96094 83.27344-47.96094-83.27344-47.96094zm0 0"/><path d="m256 0c-141.36328 0-256 114.63672-256 256s114.63672 256 256 256 256-114.63672 256-256-114.63672-256-256-256zm159.96094 256.26172s0 51.91797-6.58594 76.95312c-3.69141 13.70313-14.49609 24.50782-28.19922 28.19532-25.03515 6.58984-125.17578 6.58984-125.17578 6.58984s-99.87891 0-125.17578-6.85156c-13.70313-3.6875-24.50781-14.4961-28.19922-28.19922-6.58984-24.76953-6.58984-76.94922-6.58984-76.94922s0-51.91406 6.58984-76.94922c3.6875-13.70312 14.75781-24.77344 28.19922-28.46094 25.03516-6.58984 125.17578-6.58984 125.17578-6.58984s100.14063 0 125.17578 6.85156c13.70313 3.6875 24.50781 14.4961 28.19922 28.19922 6.85156 25.03516 6.58594 77.21094 6.58594 77.21094zm0 0"/></g></svg>