<svg fill="none" height="167" viewBox="0 0 226 167" width="226" xmlns="http://www.w3.org/2000/svg" xmlns:xlink="http://www.w3.org/1999/xlink"><filter id="a" color-interpolation-filters="sRGB" filterUnits="userSpaceOnUse" height="167" width="225.208" x="0" y="0"><feFlood flood-opacity="0" result="BackgroundImageFix"/><feColorMatrix in="SourceAlpha" result="hardAlpha" type="matrix" values="0 0 0 0 0 0 0 0 0 0 0 0 0 0 0 0 0 0 127 0"/><feOffset/><feGaussianBlur stdDeviation="10"/><feComposite in2="hardAlpha" operator="out"/><feColorMatrix type="matrix" values="0 0 0 0 0 0 0 0 0 0 0 0 0 0 0 0 0 0 0.07 0"/><feBlend in2="BackgroundImageFix" mode="normal" result="effect1_dropShadow_353_4498"/><feBlend in="SourceGraphic" in2="effect1_dropShadow_353_4498" mode="normal" result="shape"/></filter><g filter="url(#a)"><rect fill="#fff" height="124.354" rx="14.5521" stroke="#d9d9d9" stroke-width="2.64583" width="182.562" x="21.3229" y="21.3229"/><path clip-rule="evenodd" d="m64.1654 67.2703c2.4873.2098 4.9746-1.2589 6.5292-3.121 1.5286-1.9146 2.5391-4.4848 2.28-7.1076-2.2023.105-4.9228 1.4688-6.4774 3.3833-1.425 1.6524-2.6427 4.3275-2.3318 6.8453zm29.5885 33.7807v-40.888h15.1571c7.824 0 13.291 5.4552 13.291 13.4283 0 7.973-5.57 13.4807-13.498 13.4807h-8.68v13.979zm-20.8055-33.2825c-2.1913-.1276-4.1907.6671-5.8057 1.3091-1.0393.4131-1.9194.7629-2.5889.7629-.7514 0-1.6678-.3685-2.6968-.7823-1.3482-.5422-2.8896-1.162-4.506-1.1323-3.7051.0525-7.151 2.1769-9.0424 5.5602-3.8864 6.7665-1.0105 16.7853 2.7464 22.293 1.8396 2.7276 4.0418 5.7179 6.9437 5.6129 1.2766-.049 2.195-.444 3.1454-.852 1.0941-.47 2.2308-.958 4.0056-.958 1.7133 0 2.8002.476 3.8436.932.9921.434 1.9448.851 3.3592.825 3.0055-.052 4.8969-2.7274 6.7364-5.455 1.9852-2.9275 2.8576-5.7846 2.99-6.2181.0076-.0248.0127-.0417.0155-.0502-.0032-.0032-.0277-.0146-.0709-.0346-.6637-.3075-5.736-2.6581-5.7846-8.9613-.0488-5.2906 4.0232-7.9711 4.6642-8.3931l.0002-.0001c.0389-.0256.0651-.0429.077-.0519-2.5909-3.8816-6.6328-4.3012-8.0319-4.4062zm60.7066 33.5965c3.938 0 7.591-2.0191 9.249-5.2189h.13v4.9049h5.803v-20.3526c0-5.9011-4.663-9.704-11.84-9.704-6.659 0-11.582 3.8554-11.763 9.1532h5.648c.467-2.5178 2.773-4.1701 5.934-4.1701 3.834 0 5.985 1.8097 5.985 5.1405v2.2556l-7.825.472c-7.281.4459-11.219 3.462-11.219 8.7074 0 5.2979 4.068 8.812 9.898 8.812zm1.683-4.8512c-3.342 0-5.467-1.6261-5.467-4.1177 0-2.5702 2.047-4.0651 5.959-4.3012l6.97-.4458v2.3079c0 3.8292-3.213 6.5568-7.462 6.5568zm32.75 6.1362c-2.513 7.16-5.389 9.521-11.504 9.521-.466 0-2.021-.053-2.384-.157v-4.905c.389.053 1.348.105 1.84.105 2.772 0 4.327-1.18 5.285-4.249l.57-1.809-10.622-29.7682h6.555l7.384 24.1551h.129l7.385-24.1551h6.373zm-68.065-37.1372h7.229c5.441 0 8.55 2.9374 8.55 8.1042 0 5.1667-3.109 8.1304-8.576 8.1304h-7.203z" fill="#000" fill-rule="evenodd"/></g></svg>