<svg height="512" width="512" xmlns="http://www.w3.org/2000/svg"><path d="m-1-1h802v602h-802z" fill="none"/><g><path d="m305 256c0 27.0625-21.9375 49-49 49s-49-21.9375-49-49 21.9375-49 49-49 49 21.9375 49 49zm0 0"/><path d="m370.59375 169.30469c-2.35547-6.38281-6.11328-12.16016-10.99609-16.90235-4.74219-4.88281-10.51563-8.64062-16.90235-10.99609-5.17968-2.01172-12.96093-4.40625-27.29297-5.05859-15.5039-.70703-20.15234-.85938-59.40234-.85938-39.25391 0-43.90234.14844-59.40234.85547-14.33203.65625-22.11719 3.05078-27.29297 5.0625-6.38672 2.35547-12.16406 6.11328-16.90235 10.99609-4.88281 4.74219-8.64062 10.51563-11 16.90235-2.01171 5.17969-4.40625 12.96484-5.05859 27.29687-.70703 15.5-.85937 20.14844-.85937 59.40235 0 39.25.15234 43.89843.85937 59.40234.65234 14.33203 3.04688 22.11328 5.05859 27.29297 2.35938 6.38672 6.11329 12.16016 10.9961 16.90234 4.74219 4.88281 10.51562 8.64063 16.90234 10.9961 5.17969 2.01562 12.96485 4.41015 27.29688 5.0625 15.5.70703 20.14453.85546 59.39843.85546 39.25782 0 43.90625-.14843 59.40235-.85546 14.33203-.65235 22.11719-3.04688 27.29687-5.0625 12.82032-4.94532 22.95313-15.07813 27.89844-27.89844 2.01172-5.17969 4.40625-12.96094 5.0625-27.29297.70703-15.50391.85547-20.15234.85547-59.40234 0-39.25391-.14844-43.90235-.85547-59.40235-.65234-14.33203-3.04687-22.11719-5.0625-27.29687zm-114.59375 162.17969c-41.69141 0-75.48828-33.79297-75.48828-75.48438s33.79687-75.48437 75.48828-75.48437c41.6875 0 75.48438 33.79296 75.48438 75.48437s-33.79688 75.48438-75.48438 75.48438zm78.46875-136.3125c-9.74219 0-17.64062-7.89844-17.64062-17.64063s7.89843-17.64062 17.64062-17.64062 17.64063 7.89843 17.64063 17.64062c-.00391 9.74219-7.89844 17.64063-17.64063 17.64063zm0 0"/><path d="m256 0c-141.36328 0-256 114.63672-256 256s114.63672 256 256 256 256-114.63672 256-256-114.63672-256-256-256zm146.11328 316.60547c-.71094 15.64844-3.19922 26.33203-6.83203 35.68359-7.63672 19.7461-23.24609 35.35547-42.99219 42.99219-9.34765 3.63281-20.03515 6.11719-35.67968 6.83203-15.67579.71485-20.6836.88672-60.60547.88672-39.92578 0-44.92969-.17187-60.60938-.88672-15.64453-.71484-26.33203-3.19922-35.67969-6.83203-9.8125-3.69141-18.69531-9.47656-26.03906-16.95703-7.47656-7.33984-13.26172-16.22656-16.95312-26.03516-3.63282-9.34765-6.1211-20.03515-6.83203-35.67968-.72266-15.67969-.89063-20.6875-.89063-60.60938s.16797-44.92969.88672-60.60547c.71094-15.64844 3.19531-26.33203 6.82812-35.68359 3.69141-9.8086 9.48047-18.69531 16.96094-26.03516 7.33985-7.48047 16.22656-13.26562 26.03516-16.95703 9.35156-3.63281 20.03515-6.11719 35.68359-6.83203 15.67578-.71484 20.6836-.88672 60.60547-.88672s44.92969.17188 60.60547.89063c15.64844.71093 26.33203 3.19531 35.68359 6.82421 9.8086 3.69141 18.69531 9.48047 26.03906 16.96094 7.47657 7.34375 13.26563 16.22656 16.95313 26.03516 3.63672 9.35156 6.12109 20.03515 6.83594 35.68359.71484 15.67578.88281 20.6836.88281 60.60547"/></g></svg>