<svg height="512" width="512" xmlns="http://www.w3.org/2000/svg"><path d="m-1-1h802v602h-802z" fill="none"/><path d="m256 0c-141.36328 0-256 114.63672-256 256s114.63672 256 256 256 256-114.63672 256-256-114.63672-256-256-256zm116.88672 199.60156c.11328 2.51953.16797 5.05078.16797 7.59375 0 77.64453-59.10156 167.17969-167.1836 167.1836h.00391-.00391c-33.18359 0-64.0625-9.72657-90.0664-26.39453 4.59765.54296 9.27734.8125 14.01562.8125 27.53125 0 52.86719-9.39063 72.98047-25.15235-25.72265-.47656-47.41015-17.46484-54.89453-40.8125 3.58203.6875 7.26563 1.0625 11.04297 1.0625 5.36328 0 10.55859-.72265 15.49609-2.07031-26.88672-5.38281-47.14062-29.14453-47.14062-57.59766 0-.26562 0-.5039.00781-.75 7.91797 4.40235 16.97266 7.05078 26.61328 7.34766-15.77734-10.52734-26.14844-28.52344-26.14844-48.91016 0-10.76562 2.91016-20.85156 7.95704-29.53515 28.97656 35.55468 72.28125 58.9375 121.11718 61.39453-1.00781-4.30469-1.52734-8.78906-1.52734-13.39844 0-32.4375 26.31641-58.75391 58.76562-58.75391 16.90235 0 32.16797 7.14454 42.89063 18.56641 13.38672-2.64062 25.95703-7.53125 37.3125-14.26172-4.39453 13.71485-13.70703 25.22266-25.83984 32.5 11.88671-1.42187 23.21484-4.57422 33.74218-9.2539-7.86328 11.78515-17.83593 22.13671-29.30859 30.42968zm0 0"/></svg>